<?xml version="1.0" encoding="utf-8"?>
<!-- Generator: Adobe Illustrator 23.0.3, SVG Export Plug-In . SVG Version: 6.00 Build 0)  -->
<svg version="1.1" id="Слой_1" xmlns="http://www.w3.org/2000/svg" xmlns:xlink="http://www.w3.org/1999/xlink" x="0px" y="0px"
	 viewBox="0 0 127.3 38.4" style="enable-background:new 0 0 127.3 38.4;" xml:space="preserve">
<style type="text/css">
	.st0{fill:#F36E21;}
	.st1{fill:#FFFFFF;}
	.st2{fill:#CD6632;}
</style>
<g>
	<g>
		<path class="st0" d="M8.2,32.2c-1.4-0.7-2.4-1.8-3.1-3.2C4.4,27.6,4,26,4,24V8.2h4.7v16c0,1.4,0.4,2.5,1.1,3.3
			c0.8,0.8,1.8,1.2,3.2,1.2c1.4,0,2.5-0.4,3.3-1.2c0.8-0.8,1.2-1.9,1.2-3.3v-16h4.7V24c0,1.9-0.4,3.6-1.1,5
			c-0.7,1.4-1.7,2.4-3.1,3.2s-3,1.1-4.9,1.1S9.5,32.9,8.2,32.2z"/>
		<path class="st0" d="M27.3,8.2H32V33h-4.7V8.2z M29,8.2h14.6v4.5H29V8.2z M29,18.6h12.7v4.5H29V18.6z"/>
		<path class="st1" d="M46.3,8.2H51v4.7h-4.7V8.2z M46.3,15.3H51V33h-4.7V15.3z"/>
		<path class="st1" d="M60,27.1c0,0.4,0.1,0.8,0.4,1s0.6,0.4,1.1,0.4h0.8V33h-2.4c-1.4,0-2.5-0.4-3.3-1.2s-1.2-2-1.2-3.5V8.2H60
			V27.1z"/>
		<path class="st1" d="M65.5,15.3h4.7V33h-4.7V15.3z M75.8,22.8c0-1-0.3-1.8-0.8-2.4c-0.5-0.6-1.2-0.8-2.2-0.8c-0.9,0-1.5,0.2-2,0.7
			c-0.5,0.5-0.7,1.2-0.7,2l-0.4-3.9c0.5-1.1,1.2-1.9,2-2.5c0.8-0.6,1.7-0.9,2.8-0.9c1.3,0,2.3,0.3,3.2,0.9c0.9,0.6,1.6,1.5,2,2.6
			s0.7,2.6,0.7,4.2V33h-4.7V22.8z M86.1,22.8c0-1-0.2-1.8-0.7-2.4c-0.5-0.6-1.2-0.8-2.1-0.8c-0.9,0-1.6,0.3-2.1,0.8
			s-0.7,1.3-0.7,2.3l-0.9-4.1c0.6-1.1,1.3-2,2.2-2.6s1.9-0.9,3-0.9c1.3,0,2.4,0.3,3.3,0.9c0.9,0.6,1.6,1.5,2.1,2.6
			c0.5,1.2,0.7,2.6,0.7,4.2V33h-4.7V22.8z"/>
		<path class="st2" d="M100.3,33h-4.9V8.2h4.9V33z"/>
		<path class="st2" d="M105.4,8.2h4.7V33h-4.7V8.2z M107.8,28.5h6c1.5,0,2.7-0.4,3.6-1.1c0.8-0.7,1.3-1.8,1.3-3.1v-7.3
			c0-1.4-0.4-2.4-1.3-3.1c-0.8-0.7-2-1.1-3.6-1.1h-6V8.2h5.9c2.1,0,3.8,0.3,5.3,1c1.5,0.7,2.6,1.7,3.3,3c0.8,1.3,1.1,2.9,1.1,4.8v7
			c0,1.8-0.4,3.3-1.1,4.7c-0.7,1.3-1.8,2.4-3.3,3.1c-1.5,0.7-3.3,1.1-5.4,1.1h-5.8V28.5z"/>
	</g>
</g>
</svg>
